<?xml version="1.0" encoding="UTF-8"?>
<svg version="1.1" xmlns="http://www.w3.org/2000/svg" width="1024" height="1024">
<path d="M0 0 C337.92 0 675.84 0 1024 0 C1024 337.92 1024 675.84 1024 1024 C686.08 1024 348.16 1024 0 1024 C0 686.08 0 348.16 0 0 Z " fill="#FEFEFE" transform="translate(0,0)"/>
<path d="M0 0 C0.71536497 -0.00367669 1.43072995 -0.00735338 2.16777265 -0.01114148 C4.55337401 -0.02211218 6.93893171 -0.02601085 9.32455444 -0.02983093 C11.03993872 -0.0361006 12.75532165 -0.04274785 14.47070312 -0.04974365 C20.09434066 -0.07072727 25.71797829 -0.081141 31.34164429 -0.09111023 C33.28230173 -0.09515997 35.22295903 -0.09927696 37.16361618 -0.10346031 C46.2832442 -0.12249979 55.4028642 -0.13673319 64.52250826 -0.14507228 C75.02825739 -0.15483908 85.53379551 -0.18114934 96.03947031 -0.22157317 C104.17389589 -0.25179233 112.30826116 -0.26654666 120.44274175 -0.26985329 C125.29450001 -0.2721972 130.14603252 -0.28107152 134.99773026 -0.30631447 C139.56639485 -0.32970186 144.13468676 -0.33378582 148.70339584 -0.32355309 C150.37220758 -0.3230602 152.04103835 -0.32930714 153.70979309 -0.34310913 C168.30729836 -0.4570047 181.75185311 1.97440363 192.90023804 12.18232727 C201.71957907 21.52918029 206.04310363 32.17517082 205.87289429 44.92451477 C205.87006439 45.7358638 205.8672345 46.54721283 205.86431885 47.38314819 C205.85320841 49.95047855 205.8281215 52.5174478 205.80258179 55.08467102 C205.79254015 56.83531699 205.78341638 58.58596848 205.77523804 60.33662415 C205.75329912 64.60694356 205.71883338 68.87699627 205.67758179 73.14717102 C211.76211054 69.14736159 217.8451092 65.14523314 223.92709351 61.14155579 C225.9925043 59.78230833 228.0582535 58.42357495 230.12435913 57.06538391 C233.10915728 55.10314216 236.0926978 53.13900064 239.07601929 51.17451477 C239.98685272 50.57630417 240.89768616 49.97809357 241.83612061 49.36175537 C242.71627838 48.78168228 243.59643616 48.20160919 244.50326538 47.60395813 C245.78617462 46.75847916 245.78617462 46.75847916 247.09500122 45.8959198 C250.59405584 43.52659681 253.99374375 41.02518302 257.38061523 38.49850464 C260.51200878 36.65626738 263.18888537 36.4260221 266.76742554 36.51045227 C269.46824598 37.41072575 270.19752439 38.74581022 271.67758179 41.14717102 C272.06069183 43.54633236 272.06069183 43.54633236 272.07199097 46.26409912 C272.08334076 47.29731293 272.09469055 48.33052673 272.10638428 49.39505005 C272.10345367 50.52295456 272.10052307 51.65085907 272.09750366 52.8129425 C272.10597321 54.00518433 272.11444275 55.19742615 272.12316895 56.42579651 C272.14255793 59.6924212 272.14831612 62.95869538 272.14642143 66.22536731 C272.1463017 68.95400989 272.15486707 71.68259909 272.16319895 74.41122681 C272.18242985 80.84936753 272.18531796 87.28737859 272.17855835 93.72554016 C272.1719168 100.36382997 272.19478644 107.00156423 272.23187208 113.63974136 C272.26257468 119.3426456 272.27392857 125.04537117 272.27003527 130.7483564 C272.26796836 134.15296894 272.27343699 137.55714911 272.29792786 140.96168327 C272.32001908 144.75890771 272.31046349 148.55478586 272.29281616 152.352005 C272.30607941 153.47788528 272.31934265 154.60376556 272.33300781 155.76376343 C272.2509403 163.34929379 272.2509403 163.34929379 269.35325623 167.38166809 C266.67758179 169.14717102 266.67758179 169.14717102 263.2515564 169.19038391 C259.43791719 168.07721496 256.787186 166.66804663 253.49398804 164.45576477 C252.63977768 163.88962967 252.63977768 163.88962967 251.76831055 163.3120575 C249.91742222 162.08131717 248.07892825 160.83331464 246.24008179 159.58467102 C244.95936212 158.72828705 243.67785846 157.87307446 242.39559937 157.01899719 C239.7750118 155.27064762 237.15934098 153.51529971 234.54769897 151.75361633 C230.85373183 149.26268037 227.1469172 146.79153741 223.43539429 144.32685852 C217.84223531 140.61105839 212.25693337 136.88367192 206.67758179 133.14717102 C206.66356323 134.58999451 206.66356323 134.58999451 206.64926147 136.06196594 C206.60882276 139.69489223 206.54292827 143.32701854 206.47006226 146.95942688 C206.4421601 148.51954221 206.42079578 150.07979083 206.40658569 151.64009094 C206.26260247 166.5711509 204.30847833 180.01929387 193.64242554 191.29951477 C180.93043447 203.33891371 167.1759795 204.4492044 150.50643921 204.43769836 C148.77090671 204.44369015 147.03537686 204.45049719 145.29985046 204.45805359 C140.60549814 204.47565373 135.91121882 204.48040641 131.21683669 204.48168516 C128.27873404 204.48311061 125.34064973 204.48738765 122.40255165 204.4926796 C112.13768976 204.51115944 101.87287968 204.5193527 91.60800171 204.51777649 C82.0632286 204.51657536 72.51868171 204.53767733 62.97396582 204.56926382 C54.75879205 204.59547463 46.54369196 204.60614179 38.32847673 204.60486567 C33.43094655 204.60435749 28.53361763 204.60996092 23.63612938 204.63122177 C19.02719067 204.65068558 14.41864357 204.65067334 9.80969048 204.63618851 C8.12636997 204.63410944 6.44302441 204.63874702 4.75974655 204.65090942 C-11.2567452 204.75906358 -23.47874336 201.48441352 -35.50991821 190.52217102 C-45.30608694 180.33493767 -47.62341246 168.13885112 -47.61294556 154.60932922 C-47.61966278 153.35961838 -47.62638 152.10990753 -47.63330078 150.82232666 C-47.64900154 147.40874646 -47.65565343 143.99540965 -47.65693235 140.58181024 C-47.65835874 138.44340692 -47.66263763 136.30502874 -47.66792679 134.1666317 C-47.6864079 126.68983225 -47.69460016 119.21310388 -47.69302368 111.73628235 C-47.69182409 104.79426184 -47.71289538 97.85255314 -47.74451101 90.91061145 C-47.7707708 84.9290012 -47.78138688 78.94749215 -47.78011286 72.96582478 C-47.7796059 69.40291976 -47.78513995 65.84029185 -47.80646896 62.27744484 C-47.82965809 58.29541287 -47.82027162 54.314067 -47.80825806 50.33198547 C-47.82511658 48.5898024 -47.82511658 48.5898024 -47.84231567 46.81242371 C-47.74252041 33.72420901 -43.58285287 23.23134708 -34.94741821 13.45967102 C-24.42963886 4.19400826 -14.1601372 0.04739552 0 0 Z " fill="#307BDF" transform="translate(111.32241821289063,399.8528289794922)"/>
<path d="M0 0 C0.99088623 -0.0071553 1.98177246 -0.01431061 3.00268555 -0.02168274 C4.08376083 -0.02437164 5.16483612 -0.02706055 6.27867126 -0.02983093 C7.42226105 -0.03640213 8.56585083 -0.04297333 9.74409485 -0.04974365 C13.53288337 -0.06947073 17.32163221 -0.08113934 21.11045837 -0.09111023 C22.40593534 -0.09518576 23.70141232 -0.09926128 25.03614616 -0.10346031 C31.1886985 -0.12217036 37.34123102 -0.13673479 43.49380594 -0.14507228 C50.57315083 -0.1548262 57.65218151 -0.18109981 64.73141581 -0.22157317 C70.88020725 -0.25550813 77.02886787 -0.26722858 83.17774773 -0.27127647 C85.78392603 -0.2761365 88.39010113 -0.28773368 90.99621773 -0.30631447 C94.65312023 -0.33076194 98.3092114 -0.32972979 101.96617126 -0.32279968 C103.03307693 -0.33560974 104.0999826 -0.3484198 105.19921875 -0.36161804 C115.38478906 -0.29163488 123.97674632 2.20121759 131.42295837 9.35810852 C139.54190654 18.14883727 139.41700479 26.9281098 139.38780212 38.33467102 C139.40391541 39.60504211 139.42002869 40.87541321 139.43663025 42.1842804 C139.43727478 43.40308899 139.43791931 44.62189758 139.43858337 45.87763977 C139.44156433 46.98518616 139.44454529 48.09273254 139.44761658 49.23384094 C139.01632955 52.60862661 138.48731217 53.77465778 136.07530212 56.14717102 C133.20014191 56.64774227 133.20014191 56.64774227 129.62254333 56.64837646 C128.96464483 56.65391086 128.30674632 56.65944526 127.6289115 56.66514736 C125.41990456 56.678783 123.21202188 56.66377045 121.0030365 56.64888 C119.42126993 56.65266216 117.83950666 56.65816135 116.25775146 56.66525269 C111.95813774 56.67923825 107.65892279 56.66801598 103.35933113 56.65154147 C98.86438288 56.63771267 94.36945829 56.64414857 89.87449646 56.64767456 C82.32531796 56.65037841 74.7762983 56.63688613 67.22715759 56.61372375 C58.49350259 56.58711289 49.76011321 56.58536625 41.02643156 56.59711212 C32.63239352 56.6078833 24.23845177 56.60170804 15.84442139 56.58755684 C12.26870453 56.58179128 8.693058 56.58188417 5.11734009 56.58662224 C0.90823681 56.59138705 -3.3005748 56.58131116 -7.50962257 56.55966759 C-9.05641 56.55409274 -10.60322542 56.55364081 -12.15001488 56.55862045 C-14.25764894 56.56455578 -16.36438598 56.55210344 -18.47193909 56.53485107 C-19.65254662 56.53242118 -20.83315414 56.52999128 -22.04953766 56.52748775 C-24.92469788 56.14717102 -24.92469788 56.14717102 -26.80373383 54.8141489 C-28.62334618 52.10821596 -28.31430983 49.56775106 -28.32313538 46.35420227 C-28.32600555 45.68934311 -28.32887573 45.02448395 -28.33183289 44.33947754 C-28.33387316 42.93153534 -28.32834571 41.52356476 -28.31581116 40.11567688 C-28.29988145 37.98423385 -28.31559243 35.85472368 -28.33485413 33.7233429 C-28.35453502 22.51445606 -26.92187783 15.46920486 -19.11610413 7.13154602 C-13.60277638 2.13908524 -7.36082799 0.03659535 0 0 Z " fill="#FEFEFE" transform="translate(139.92469787597656,510.8528289794922)"/>
<path d="M0 0 C10.22016333 8.61808368 16.89758219 20.10392127 18.125 33.625 C19.10814522 49.46257576 16.94629872 64.96860692 6.7109375 77.60546875 C-2.06800898 86.97895483 -12.4372567 92.83028469 -25.34082031 93.81274414 C-27.87635407 93.89151657 -30.40093996 93.898289 -32.9375 93.875 C-34.2069043 93.88660156 -34.2069043 93.88660156 -35.50195312 93.8984375 C-48.14459826 93.85944708 -60.43925202 89.16534403 -69.8125 80.5625 C-82.4798875 66.76071959 -83.74363988 50.20844243 -83.06591797 32.41894531 C-82.2670831 20.72857922 -76.66334504 9.86543385 -68.1875 1.8125 C-48.77996275 -13.75085199 -20.08751219 -15.02343349 0 0 Z " fill="#2F7ADF" transform="translate(575.875,472.375)"/>
<path d="M0 0 C9.24 0 18.48 0 28 0 C28.0093457 2.70429199 28.01869141 5.40858398 28.02832031 8.19482422 C28.06217142 17.1555727 28.11776558 26.11609285 28.18390274 35.07665825 C28.22331847 40.50652098 28.25553596 45.93622296 28.27099609 51.36621094 C28.28620147 56.61190877 28.32071606 61.85716451 28.36830902 67.10266495 C28.38308281 69.0983609 28.3910387 71.09411999 28.39188385 73.08987045 C28.14544568 89.155102 28.14544568 89.155102 34.82421875 103.40234375 C43.2121587 110.3131622 51.20390456 112.0161031 62 111 C68.96405442 109.79410313 75.1152945 107.23441882 80 102 C84.18321905 95.01584298 85.14883002 88.40336125 85.20532227 80.37597656 C85.21522186 79.50732468 85.22512146 78.63867279 85.23532104 77.74369812 C85.26687728 74.87603469 85.29167027 72.0083547 85.31640625 69.140625 C85.33698085 67.15093559 85.35797745 65.16125051 85.37937927 63.17156982 C85.43454768 57.93718976 85.48398005 52.70277059 85.53222656 47.46832275 C85.58247976 42.12598189 85.6381459 36.78369775 85.69335938 31.44140625 C85.800877 20.96098418 85.90183593 10.48051386 86 0 C95.24 0 104.48 0 114 0 C114.06805604 11.49274583 114.1229769 22.98535555 114.15543652 34.47825813 C114.17102358 39.81614862 114.19213324 45.15389287 114.22631836 50.49169922 C114.25916186 55.65292655 114.27690521 60.81401412 114.28463173 65.97533798 C114.29013072 67.93429638 114.3008675 69.89324803 114.31719017 71.85214615 C114.45761378 89.41969362 113.70196859 106.59699266 100.9921875 120.125 C88.31305613 132.05830011 73.34878604 135.18059406 56.5 135.3125 C55.29601562 135.34150391 54.09203125 135.37050781 52.8515625 135.40039062 C38.65549639 135.49961044 23.44938079 131.15082705 13 121 C-0.25854382 106.02606507 -0.29828762 88.92517215 -0.1953125 70.01953125 C-0.19157636 67.99501181 -0.18873223 65.97049054 -0.18673706 63.94596863 C-0.17914794 58.65077611 -0.15954063 53.35569555 -0.1373291 48.06054688 C-0.1167683 42.64389561 -0.10771357 37.22722602 -0.09765625 31.81054688 C-0.07628976 21.20697447 -0.04114674 10.60351412 0 0 Z " fill="#2F7ADE" transform="translate(753,431)"/>
<path d="M0 0 C7.16643983 5.15127221 11.420955 12.45125382 13.125 21.125 C13.21323984 23.53937454 13.24263421 25.95608732 13.23852539 28.37207031 C13.23867142 29.09441864 13.23881744 29.81676697 13.2389679 30.56100464 C13.23827284 32.94174228 13.2304995 35.32240108 13.22265625 37.703125 C13.22079063 39.35650591 13.2193674 41.00988738 13.21836853 42.66326904 C13.21455473 47.00994397 13.20473415 51.35658537 13.19366455 55.70324707 C13.18342599 60.14070177 13.17886567 64.57816189 13.17382812 69.015625 C13.16311086 77.71876709 13.14552326 86.42187551 13.125 95.125 C4.545 95.125 -4.035 95.125 -12.875 95.125 C-12.92398438 91.05414062 -12.97296875 86.98328125 -13.0234375 82.7890625 C-13.06805697 79.51818623 -13.1145478 76.2473483 -13.16229248 72.97651672 C-13.2119824 69.53760626 -13.25846877 66.09872453 -13.296875 62.65966797 C-13.34121958 58.70263189 -13.40075273 54.74589051 -13.4609375 50.7890625 C-13.47248871 49.57199615 -13.48403992 48.35492981 -13.49594116 47.10098267 C-13.60579735 33.14386056 -13.60579735 33.14386056 -19.875 21.125 C-25.3756983 16.89369362 -32.26239209 17.40641379 -38.875 18.125 C-43.53545725 19.42405659 -46.17319652 21.27544841 -49.25 25 C-51.95371174 30.19944565 -53.12211711 34.63956425 -53.19384766 40.49755859 C-53.21371735 41.73839203 -53.23358704 42.97922546 -53.25405884 44.25765991 C-53.26593233 45.59625063 -53.27759536 46.93484324 -53.2890625 48.2734375 C-53.30779091 49.65492895 -53.32736556 51.03640916 -53.3477478 52.4178772 C-53.39889861 56.0377945 -53.43861497 59.65774882 -53.47589111 63.27783203 C-53.51603827 66.97828158 -53.56697696 70.67858182 -53.6171875 74.37890625 C-53.71475753 81.62754634 -53.79440922 88.87607169 -53.875 96.125 C-62.785 96.125 -71.695 96.125 -80.875 96.125 C-80.875 63.125 -80.875 30.125 -80.875 -3.875 C-71.965 -3.875 -63.055 -3.875 -53.875 -3.875 C-53.545 0.085 -53.215 4.045 -52.875 8.125 C-51.92625 6.908125 -50.9775 5.69125 -50 4.4375 C-37.88604849 -9.47750744 -14.81287014 -9.29998967 0 0 Z " fill="#2F7ADE" transform="translate(726.875,468.875)"/>
<path d="M0 0 C5.02186165 4.50458835 7.89420561 10.14751159 10.0078125 16.5078125 C10.0078125 17.8278125 10.0078125 19.1478125 10.0078125 20.5078125 C5.67776558 20.90467441 1.34694473 21.22728466 -2.9921875 21.5078125 C-4.19746094 21.58773438 -5.40273438 21.66765625 -6.64453125 21.75 C-7.79050781 21.79382813 -8.93648437 21.83765625 -10.1171875 21.8828125 C-11.17164063 21.93179687 -12.22609375 21.98078125 -13.3125 22.03125 C-15.9921875 21.5078125 -15.9921875 21.5078125 -17.734375 19.09375 C-18.14945313 18.24039062 -18.56453125 17.38703125 -18.9921875 16.5078125 C-24.13765021 12.00553263 -29.22601044 12.18158373 -35.80859375 12.2109375 C-40.52330653 12.6505917 -42.68015983 14.19578483 -45.9921875 17.5078125 C-46.64266971 22.92044792 -46.64266971 22.92044792 -44.48828125 27.64453125 C-41.14586541 30.13957406 -37.75521328 30.76074949 -33.7421875 31.5078125 C-32.12081144 31.84238478 -30.49972245 32.17835092 -28.87890625 32.515625 C-27.65373291 32.7636084 -27.65373291 32.7636084 -26.40380859 33.01660156 C-0.52783181 38.28714877 -0.52783181 38.28714877 7.88671875 48.69921875 C12.09085346 55.48149878 11.64342081 62.81614736 11.0078125 70.5078125 C9.17344399 78.1967823 4.33118933 83.75044218 -2.24609375 87.9453125 C-16.59639482 95.68480072 -33.96367615 96.65836453 -49.859375 93.81640625 C-52.74337792 92.92124171 -55.30413738 91.87735702 -57.9921875 90.5078125 C-59.33796875 89.85425781 -59.33796875 89.85425781 -60.7109375 89.1875 C-70.2312811 84.06331506 -74.78136757 76.66911321 -77.9921875 66.5078125 C-77.9921875 65.8478125 -77.9921875 65.1878125 -77.9921875 64.5078125 C-72.30603745 63.58719773 -66.68626392 63.12907849 -60.9296875 62.9453125 C-60.05763672 62.88279297 -59.18558594 62.82027344 -58.28710938 62.75585938 C-55.63446538 62.68959348 -53.53939392 62.75005339 -50.9921875 63.5078125 C-49.09151216 65.37552508 -47.77886176 67.30399008 -46.35009766 69.54858398 C-44.35025157 72.43401456 -42.28028454 73.4075808 -38.9921875 74.5078125 C-31.58277946 75.37550437 -24.50476353 75.35615288 -17.9921875 71.5078125 C-15.43140985 68.94703485 -15.67767386 67.07898647 -15.53125 63.578125 C-16.20776735 60.5395301 -17.60605747 59.48340207 -19.9921875 57.5078125 C-23.21902176 56.34507147 -23.21902176 56.34507147 -26.890625 55.61328125 C-28.27215698 55.293713 -29.65366663 54.97404821 -31.03515625 54.65429688 C-33.18359781 54.17554431 -35.33320557 53.70271641 -37.48388672 53.23413086 C-63.81162727 47.42879361 -63.81162727 47.42879361 -70.9765625 36.5 C-74.95020768 28.70554215 -75.56246345 20.60673135 -72.96484375 12.171875 C-68.87116458 3.16804879 -63.04770583 -1.92230125 -54.0546875 -5.8046875 C-36.51638432 -12.09149464 -15.33756946 -11.48814026 0 0 Z " fill="#2F7ADF" transform="translate(952.9921875,471.4921875)"/>
<path d="M0 0 C8.91 0 17.82 0 27 0 C27.0678945 12.99605121 27.12288472 25.99198378 27.15543652 38.98817253 C27.17106316 45.02343229 27.1922467 51.05856395 27.22631836 57.09375 C27.25901867 62.92279436 27.27687558 68.75171584 27.28463173 74.58084488 C27.29015608 76.79988666 27.30094367 79.01892204 27.31719017 81.23791122 C27.3391061 84.35650692 27.34196099 87.47460087 27.34057617 90.59326172 C27.351362 91.50173355 27.36214783 92.41020538 27.3732605 93.34620667 C27.31909376 104.68887967 23.55961433 114.70130996 16.03125 123.23046875 C4.92800864 133.95153332 -8.20830417 135.49803006 -22.89453125 135.2734375 C-33.50577684 134.87803599 -42.50413424 131.64226938 -50 124 C-56.7528636 116.27113658 -60 108.27715349 -60 98 C-51.42 98 -42.84 98 -34 98 C-32.68 100.64 -31.36 103.28 -30 106 C-27.10674884 109.41929683 -25.08546209 110.79743123 -20.546875 111.23828125 C-14.08288623 111.40981168 -10.08345426 111.14975858 -5 107 C-0.97888133 101.28031416 -0.41583705 95.82682517 -0.45410156 89.00390625 C-0.44376389 88.03713455 -0.43342621 87.07036285 -0.42277527 86.07429504 C-0.39346072 82.90352439 -0.39185047 79.73339523 -0.390625 76.5625 C-0.37563573 74.35431713 -0.35890702 72.14614544 -0.34051514 69.93798828 C-0.29691358 64.14466828 -0.27685833 58.35149952 -0.26177979 52.55804443 C-0.24218288 46.63886602 -0.2002157 40.71985029 -0.16015625 34.80078125 C-0.08493175 23.20054356 -0.03666219 11.60042373 0 0 Z " fill="#307BDF" transform="translate(455,431)"/>
<path d="M0 0 C8.91 0 17.82 0 27 0 C27 33 27 66 27 100 C18.09 100 9.18 100 0 100 C0 67 0 34 0 0 Z " fill="#317CDF" transform="translate(605,465)"/>
<path d="M0 0 C6.39027777 4.09170328 9.86819209 10.36907832 11.6328125 17.625 C13.29654944 27.81354833 13.22801838 39.52561107 7.046875 48.16015625 C2.39871121 53.5662569 -0.93755955 56.87545945 -8.1953125 57.69921875 C-15.81243429 57.8419873 -21.16797166 57.58906777 -26.92578125 52.328125 C-33.12874147 46.29746924 -35.10734617 38.7540412 -35.40283203 30.34521484 C-35.49952442 19.73991107 -34.22673197 10.81773468 -26.68359375 2.80078125 C-18.66693332 -3.91539871 -9.20343812 -4.56156444 0 0 Z " fill="#FDFDFE" transform="translate(554.92578125,486.671875)"/>
<path d="M0 0 C5.47441041 2.43664934 9.3100478 6.54193025 12.7421875 11.38671875 C14.7426098 17.38798564 14.94454907 24.90364442 12.87109375 30.91015625 C9.62897012 36.45897112 4.86313266 40.3464037 -1.2578125 42.38671875 C-8.97127536 43.02255826 -15.06800988 43.31329635 -21.2578125 38.38671875 C-26.5539116 33.30000032 -29.18781492 28.55399112 -29.6953125 21.13671875 C-29.52404097 15.49427346 -27.59756042 10.9061024 -24.2578125 6.38671875 C-16.93683239 0.15126327 -9.58112332 -2.60248505 0 0 Z " fill="#FDFDFE" transform="translate(203.2578125,447.61328125)"/>
<path d="M0 0 C4.51957864 4.07534655 7.60041334 8.4815616 8.30078125 14.6484375 C8.3325638 22.04317834 7.26549393 26.39199114 3.3125 32.6875 C-1.69352982 37.69352982 -6.43300489 39.26770067 -13.5 39.5625 C-20.53253237 39.32645435 -24.52585391 37.32270895 -29.5234375 32.54296875 C-34.43349439 27.16461164 -35.48866703 21.57807297 -35.30859375 14.5234375 C-34.59364614 8.67715707 -31.91117225 4.55953506 -27.625 0.625 C-19.17695258 -5.96161324 -8.86317229 -5.69775361 0 0 Z " fill="#FCFDFE" transform="translate(269,451)"/>
<path d="M0 0 C5.09361542 3.42839499 8.28965663 7.11525926 10 13 C10.76726961 19.56058622 10.83314346 25.38718279 7 31 C6.443125 31.86625 5.88625 32.7325 5.3125 33.625 C0.28696378 38.78636152 -4.44539309 40.25739584 -11.625 40.4375 C-18.9721099 40.15817439 -22.74041139 38.53446907 -27.75 33.1875 C-32.08952714 27.91875844 -33.50251517 23.14303006 -33.30859375 16.3671875 C-32.52538675 10.35929584 -30.05798497 5.60647338 -25.5625 1.5625 C-17.63353961 -4.48898986 -8.7760371 -4.60138943 0 0 Z " fill="#FCFDFE" transform="translate(145,450)"/>
<path d="M0 0 C4.13760924 2.28974492 6.34932369 4.93823284 7.8125 9.4375 C8.75842064 14.44299674 7.97886315 18.61435266 5.20703125 22.89453125 C1.65787527 26.82146854 -2.67429513 28.25487183 -7.8125 28.875 C-12.94477809 28.20970469 -16.02520715 26.72544613 -19.5 22.875 C-22.76424151 18.15998449 -22.82008331 14.07875661 -22.1875 8.4375 C-17.59477436 -0.58392537 -9.58546618 -4.18469979 0 0 Z " fill="#2E7ADF" transform="translate(625.1875,425.5625)"/>
<path d="M0 0 C8.91 0 17.82 0 27 0 C27 33 27 66 27 100 C18.09 100 9.18 100 0 100 C0 67 0 34 0 0 Z M1 1 C1 33.01 1 65.02 1 98 C8.92 98 16.84 98 25 98 C25 65.99 25 33.98 25 1 C17.08 1 9.16 1 1 1 Z " fill="#2671DD" transform="translate(605,465)"/>
<path d="M0 0 C0.66 0.33 1.32 0.66 2 1 C2 2.32 2 3.64 2 5 C-5.26 5 -12.52 5 -20 5 C-20 4.67 -20 4.34 -20 4 C-10.1 3.505 -10.1 3.505 0 3 C0 2.01 0 1.02 0 0 Z " fill="#1568DD" transform="translate(961,487)"/>
<path d="M0 0 C-3.55818936 2.26273207 -6.12547951 2.07331744 -10.25 1.625 C-11.32765625 1.51414062 -12.4053125 1.40328125 -13.515625 1.2890625 C-14.74539063 1.14597656 -14.74539063 1.14597656 -16 1 C-16 0.67 -16 0.34 -16 0 C-14.27185839 -0.19672365 -12.54240803 -0.38196799 -10.8125 -0.5625 C-9.84957031 -0.66691406 -8.88664063 -0.77132812 -7.89453125 -0.87890625 C-5.05766623 -0.99758751 -2.74576329 -0.67765639 0 0 Z " fill="#4185E2" transform="translate(933,547)"/>
<path d="M0 0 C3.26008643 3.16952847 6.22237877 6.39937989 9 10 C5.32408105 8.9789114 4.0660202 8.08564783 1.6875 5 C0 2 0 2 0 0 Z " fill="#2674DF" transform="translate(113,478)"/>
</svg>
